<?xml version="1.0" encoding="UTF-8"?>
<svg width="32px" height="32px" viewBox="0 0 32 32" version="1.1" xmlns="http://www.w3.org/2000/svg">
    <title>Light Mode / Warning Icon / 32x32 / weather-warning-red-32x32</title>
    <desc>Created with Sketch.</desc>
    <g id="Light-Mode-/-Warning-Icon-/-32x32-/-weather-warning-red-32x32" stroke="none" stroke-width="1" fill="none" fill-rule="evenodd">
        <polygon id="Background" fill="#FC5F79" fill-rule="nonzero" points="3.99999996 25 16 4.21999996 28 25"></polygon>
        <path d="M16,2.22354368 C16.7130686,2.22354368 17.3722022,2.60319561 17.73,3.21999996 L17.73,3.21999996 L29.73,24 C30.087083,24.618485 30.0872786,25.3804444 29.7305133,25.9991127 C29.3737479,26.6177809 28.7141648,26.9992679 28,27 L28,27 L3.99999996,27 C3.28583516,26.9992679 2.62625207,26.6177809 2.26948672,25.9991127 C1.91272137,25.3804444 1.91291699,24.618485 2.26999996,24 L2.26999996,24 L14.27,3.21999996 C14.6277978,2.60319561 15.2869314,2.22354368 16,2.22354368 Z M16,4.21999996 L3.99999996,25 L28,25 L16,4.21999996 Z M16,19 C16.5522848,19 17,19.4477153 17,20 C17,20.5522848 16.5522848,21 16,21 C15.4477152,21 15,19.5522848 15,19 C15,18.4477153 15.4477152,18 16,18 Z M17,13 L17,18 L15,18 L15,13 L17,13 Z" id="Outline" fill="#12212B" fill-rule="nonzero"></path>
    </g>
</svg>
