<svg xmlns="http://www.w3.org/2000/svg" viewBox="0 0 32 32"><title>water-shortage-outline-32x32</title><path d="M7.5,20.41s-3.25,2.53-3.25,4.34a3.25,3.25,0,0,0,6.5,0C10.75,22.94,7.5,20.41,7.5,20.41ZM7.5,26a1.24,1.24,0,0,1-1.25-1.2A5.12,5.12,0,0,1,7.5,23.09a5.41,5.41,0,0,1,1.25,1.66A1.25,1.25,0,0,1,7.5,26Z"/><path d="M12.84,11h3.95l.3-.44a3.49,3.49,0,0,1,5.82,0l.3.44H28V9H24.24A5.5,5.5,0,0,0,21,7.1V6h3V4H16V6h3V7.1A5.5,5.5,0,0,0,15.76,9H12.84A8.86,8.86,0,0,0,4,17.84V19h7V17.88A1.88,1.88,0,0,1,12.88,16h2.88a5.49,5.49,0,0,0,8.48,0H28V14H23.21l-.3.44a3.49,3.49,0,0,1-5.82,0l-.3-.44H12.88A3.88,3.88,0,0,0,9.1,17h-3A6.85,6.85,0,0,1,12.84,11Z"/></svg>
