<?xml version="1.0" encoding="UTF-8"?>
<svg width="32px" height="32px" viewBox="0 0 32 32" version="1.1" xmlns="http://www.w3.org/2000/svg">
    <title>Light Mode / Warning Icon / 32x32 / weather-warning-yellow-32x32</title>
    <desc>Created with Sketch.</desc>
    <g id="Light-Mode-/-Warning-Icon-/-32x32-/-weather-warning-yellow-32x32" stroke="none" stroke-width="1" fill="none" fill-rule="evenodd">
        <path d="M16,3.99999996 C22.627417,3.99999996 28,9.37258298 28,16 C28,22.627417 22.627417,28 16,28 C9.37258298,28 3.99999996,22.627417 3.99999996,16 C3.99999996,9.37258298 9.37258298,3.99999996 16,3.99999996" id="Background" fill="#FCFF40" fill-rule="nonzero"></path>
        <path d="M16,1.99999996 C19.7130309,1.99999996 23.2739857,3.47499573 25.899495,6.10050503 C28.5250043,8.72601434 30,12.28696913 30,16 C30,23.7319865 23.7319865,30 16,30 C8.26801348,30 1.99999996,23.7319865 1.99999996,16 C1.99999996,8.26801348 8.26801348,1.99999996 16,1.99999996 Z M16,3.99999996 C9.37258298,3.99999996 3.99999996,9.37258298 3.99999996,16 C3.99999996,22.627417 9.37258298,28 16,28 C22.627417,28 28,22.627417 28,16 C28,9.37258298 22.627417,3.99999996 16,3.99999996 Z M16,18 C16.5522848,18 17,18.4477153 17,19 C17,19.5522848 16.5522848,20 16,20 C15.4477152,20 15,19.5522848 15,19 C15,18.4477153 15.4477152,18 16,18 Z M17,12 L17,17 L15,17 L15,12 L17,12 Z" id="Outline" fill="#12212B" fill-rule="nonzero"></path>
    </g>
</svg>
